# xmcd CD database file
#
# Track frame offsets:
#	180
#	14428
#	21283
#	34843
#	49172
#	58835
#	71954
#	112082
#	126486
#	147011
#	165522
#
# Disc length: 2558 seconds
#
# Revision: 0
# Processed by: cddbd v1.5.2PL0 Copyright (c) Steve Scherf et al.
# Submitted via: CDex 1.70beta2
#
DISCID=a409fc0b
DTITLE=Varios Artistas - Lo Mejor De
DYEAR=1995
DGENRE=Jazz
TTITLE0=01-Begin The Beguine
TTITLE1=02-Somebody Loves Me
TTITLE2=03-You Make Me Feel So Young
TTITLE3=04-Stand By Me
TTITLE4=05-Surfin Safari
TTITLE5=06-Rescue Me
TTITLE6=07-Brindisi: (Libiamo Ne Lieti Calici)
TTITLE7=08-La Donna E Mobile
TTITLE8=09-Manon
TTITLE9=10-De Miei Bollenti Spiriti
TTITLE10=11-Viva La Fiesta
EXTD=YEAR: 1995
EXTT0=
EXTT1=
EXTT2=
EXTT3=
EXTT4=
EXTT5=
EXTT6=
EXTT7=
EXTT8=
EXTT9=
EXTT10=
PLAYORDER=
